<?xml version="1.0" encoding="iso-8859-1"?>
<!-- Generator: Adobe Illustrator 19.0.0, SVG Export Plug-In . SVG Version: 6.00 Build 0)  -->
<svg version="1.1" id="Capa_1" xmlns="http://www.w3.org/2000/svg" xmlns:xlink="http://www.w3.org/1999/xlink" x="0px" y="0px"
	 viewBox="0 0 511.999 511.999" style="enable-background:new 0 0 511.999 511.999;" xml:space="preserve">
<path style="fill:#FEDBAB;" d="M143.356,252.697c-28.169-28.242-45.217-58.648-45.217-101.159c0-36.073,14.037-69.979,39.561-95.489
	l0,0c33.173-33.217,84.836-40.337,125.803-17.275c7.121,4,9.729,12.967,5.861,20.161L167.209,249.194
	C162.401,258.126,150.442,259.783,143.356,252.697z"/>
<path style="fill:#FEC478;" d="M360.473,413.797c-42.133,0-72.912-16.911-101.188-45.188c-7.092-7.061-5.38-19.065,3.517-23.824
	l190.274-102.126c7.18-3.883,16.147-1.274,20.161,5.847c23.033,40.88,15.942,92.617-17.26,125.818
	C429.661,400.64,395.081,413.797,360.473,413.797z"/>
<path style="fill:#FF9923;" d="M445.434,300.017c-73.205,73.205-251.288,93.422-303.912,84.51c-4.032-0.211-7.214-1.696-9.76-4.243
	c-2.337-2.337-4.032-5.728-4.458-9.549c-0.636-8.274-6.94-212.458,84.512-303.91c21.432-21.432,47.742-36.707,75.537-47.107
	l28.435,18.251l127.949,127.949l48.802,58.561C482.141,252.276,466.652,278.799,445.434,300.017z"/>
<path style="fill:#FE8821;" d="M445.434,300.017c-73.205,73.205-251.288,93.422-303.912,84.51c-4.032-0.211-7.214-1.696-9.76-4.243
	l263.172-263.172l48.804,48.804l48.802,58.561C482.141,252.276,466.652,278.799,445.434,300.017z"/>
<path style="fill:#FEDBAB;" d="M183.535,433.329c0.211-26.947-10.186-53.895-30.555-74.264c-39.679-39.679-108.852-39.679-148.53,0
	c-7.426,7.426-5.093,19.521,3.818,24.187c25.888,13.156,49.654,30.134,70.023,50.503c20.369,20.369,37.344,44.132,50.501,70.02
	c4.878,9.123,16.976,11.034,24.189,3.821C173.351,487.226,183.748,460.278,183.535,433.329z"/>
<path style="fill:#FEC478;" d="M183.535,433.329c0.212,26.948-10.185,53.896-30.555,74.266c-7.214,7.214-19.311,5.303-24.189-3.821
	c-13.156-25.888-30.132-49.651-50.501-70.02l74.69-74.69C173.35,379.435,183.747,406.384,183.535,433.329z"/>
<path style="fill:#FEDBAB;" d="M509.302,81.677c-2.761-16.763-14.215-29.917-30.341-35.433c-3.609-1.063-7.641-1.699-11.248-1.91
	c-0.426-3.822-1.059-7.426-2.123-11.46c-5.304-15.914-18.673-27.583-35.224-30.132c-38.827-6.574-96.966-1.482-143.014,16.975
	c-17.184,55.384-2.334,120.311,41.378,163.598c41.376,41.376,103.334,59.199,163.807,41.163
	C510.363,176.949,515.88,124.752,509.302,81.677z"/>
<path style="fill:#FEC478;" d="M492.539,224.478c-60.474,18.037-122.433,0.212-163.807-41.163L467.714,44.333
	c3.607,0.211,7.638,0.847,11.248,1.91c16.126,5.517,27.58,18.67,30.341,35.433C515.88,124.752,510.363,176.949,492.539,224.478z"/>
<circle style="fill:#57555C;" cx="378.467" cy="67.976" r="15.004"/>
<path style="fill:#FEDBAB;" d="M251.92,276.253l-16.126-16.126c-23.765-23.765-14.216-63.867,17.612-74.476l17.4-5.942
	c8.061-2.549,16.548,1.696,18.882,9.547c2.759,7.851-1.482,16.34-9.336,19.096l-17.612,5.728
	c-10.608,3.397-13.792,16.765-5.728,24.828l16.126,16.126c7.851,7.851,21.432,4.88,24.825-5.73l5.73-17.61
	c2.756-7.853,11.245-12.095,19.096-9.336c7.851,2.334,12.096,10.822,9.547,18.882l-5.942,17.4
	C315.787,290.469,275.472,299.805,251.92,276.253z"/>
<path style="fill:#FEC478;" d="M251.92,276.253l-8.063-8.063l21.218-21.218l8.063,8.063c7.851,7.851,21.432,4.88,24.825-5.73
	l5.73-17.61c2.756-7.853,11.245-12.095,19.096-9.336c7.851,2.334,12.096,10.822,9.547,18.882l-5.942,17.4
	C315.787,290.469,275.472,299.805,251.92,276.253z"/>
<g>
</g>
<g>
</g>
<g>
</g>
<g>
</g>
<g>
</g>
<g>
</g>
<g>
</g>
<g>
</g>
<g>
</g>
<g>
</g>
<g>
</g>
<g>
</g>
<g>
</g>
<g>
</g>
<g>
</g>
</svg>
